<svg width="51" height="52" viewBox="0 0 51 52" fill="none" xmlns="http://www.w3.org/2000/svg">
<g clip-path="url(#clip0_136_180)">
<path fill-rule="evenodd" clip-rule="evenodd" d="M47.7 36.8137C47.7 45.199 40.9776 52.0016 32.6912 52.0016C30.3039 52.0016 28.0541 51.4466 26.0237 50.4189C24.0204 51.4188 21.743 52.0016 19.3837 52.0016C11.0968 52.0016 4.37439 45.199 4.37439 36.8137C4.37439 28.4284 11.0968 21.6257 19.3833 21.6257C21.7705 21.6257 24.0204 22.1811 26.0233 23.1806C28.0266 22.1811 30.3039 21.6257 32.6912 21.6257C40.9776 21.6257 47.7 28.4284 47.7 36.8137ZM44.7369 36.8137C44.7369 30.0945 39.3311 24.6246 32.6912 24.6246C31.429 24.6246 30.1944 24.8189 29.0693 25.18C31.3741 27.1234 33.048 29.7334 33.8708 32.7323H30.7703C29.8994 30.2288 28.2418 28.0831 26.0512 26.6236C23.8834 28.0673 22.2369 30.2057 21.3591 32.7323H18.2586C19.0705 29.775 20.7437 27.1336 23.0601 25.1522C21.878 24.7834 20.6478 24.5962 19.4108 24.5968C12.7708 24.5968 7.36542 30.0667 7.36542 36.7859C7.36542 43.5051 12.7708 48.9753 19.4108 48.9753C20.6729 48.9753 21.88 48.781 23.0052 48.4199C20.0145 45.8934 18.0666 42.1727 17.7647 38.0078H24.8986V40.9785L21.4137 41.0341C22.3193 43.4777 23.9383 45.5327 26.0512 46.9485C28.1636 45.5323 29.7826 43.4777 30.6882 41.0341L27.2034 40.9785V38.0078H34.3376C34.0082 42.1727 32.0328 45.8656 29.0418 48.3921C30.1944 48.7532 31.429 48.9753 32.6912 48.9753C39.3586 49.0031 44.7369 43.5607 44.7369 36.8137Z" fill="black"/>
<path d="M45.2081 3.0917L45.116 3.12277C44.7574 2.33457 44.2449 1.70709 43.5787 1.24033C42.9229 0.773847 42.098 0.540605 41.1041 0.540605C40.5507 0.540605 40.0229 0.659884 39.5207 0.898444C39.0185 1.12637 38.5778 1.45299 38.1988 1.87831C37.8296 2.29299 37.5325 2.79601 37.3072 3.38737C37.0817 3.97818 36.969 4.63143 36.969 5.34711C36.969 6.06251 37.0817 6.71575 37.3072 7.30684C37.5327 7.89792 37.8299 8.40612 38.1988 8.83144C38.5778 9.24612 39.0184 9.56756 39.5203 9.79576C40.0228 10.024 40.5507 10.1381 41.1041 10.1381C42.0878 10.1381 42.887 9.98252 43.5019 9.67144C44.1269 9.34972 44.6547 8.86225 45.0853 8.209L45.1774 8.24008L45.1467 9.23549C44.911 9.48441 44.6394 9.70743 44.332 9.90455C44.0248 10.0913 43.6918 10.2522 43.3329 10.3871C42.9846 10.5112 42.6208 10.6044 42.2418 10.6668C41.8624 10.7394 41.4832 10.7756 41.1041 10.7756C40.315 10.7756 39.5618 10.6461 38.8446 10.3871C38.1271 10.1276 37.4968 9.76455 36.9536 9.29806C36.4104 8.82094 35.98 8.25058 35.6624 7.58697C35.3447 6.91301 35.1859 6.16639 35.1859 5.34711C35.1859 4.52782 35.3449 3.78624 35.6628 3.12237C35.9802 2.4484 36.4104 1.87299 36.9536 1.39615C37.4968 0.919026 38.1271 0.556009 38.8446 0.307089C39.5618 0.0480817 40.3148 -0.0814209 41.1037 -0.0814209C41.4831 -0.0814209 41.8624 -0.0504743 42.2418 0.0114149C42.6208 0.0738494 42.9846 0.172405 43.3329 0.307089C43.6915 0.431686 44.0246 0.592546 44.332 0.789664C44.6394 0.97615 44.911 1.19385 45.1467 1.44277L45.2081 3.0917Z" fill="black"/>
<path d="M11.3349 6.06279C11.2223 6.11459 11.1148 6.18193 11.0124 6.26481C10.91 6.34769 10.8588 6.46179 10.8588 6.60711V8.52063C10.3666 9.23604 9.73612 9.79086 8.96745 10.1851C8.19905 10.5791 7.34861 10.776 6.41613 10.776C5.62698 10.776 4.87367 10.6464 4.15619 10.3871C3.43897 10.1278 2.80879 9.76482 2.26563 9.29806C1.72246 8.82094 1.29206 8.25072 0.974404 7.58738C0.656751 6.91315 0.497925 6.16639 0.497925 5.34711C0.497925 4.5281 0.656886 3.78665 0.974808 3.12277C1.29219 2.44881 1.72246 1.87326 2.26563 1.39615C2.80879 0.919026 3.43897 0.556148 4.15619 0.307501C4.87367 0.0482209 5.62698 -0.0814209 6.41613 -0.0814209C6.79521 -0.0814209 7.17429 -0.0503413 7.55337 0.0118205C7.93272 0.0739824 8.29645 0.172545 8.64455 0.307501C9.00342 0.431825 9.33657 0.592546 9.64398 0.789665C9.9514 0.976423 10.223 1.19413 10.4587 1.44277L10.5206 3.0917L10.428 3.12277C10.0697 2.33484 9.55736 1.7075 8.89107 1.24075C8.23502 0.773986 7.41004 0.540605 6.41613 0.540605C5.86273 0.540605 5.33492 0.659885 4.83271 0.898444C4.33077 1.12664 3.89026 1.45326 3.51118 1.87831C3.14207 2.29327 2.84476 2.79629 2.61925 3.38737C2.39374 3.97845 2.28098 4.6317 2.28098 5.34711C2.28098 6.05215 2.38875 6.70022 2.60429 7.2913C2.82953 7.88265 3.12658 8.39085 3.49542 8.8159C3.87477 9.23058 4.31542 9.5572 4.81736 9.79576C5.31957 10.024 5.85249 10.1381 6.41613 10.1381C7.48198 10.1381 8.39398 9.93072 9.15214 9.51604V6.60711C9.15214 6.46206 9.09583 6.34797 8.98321 6.26481C8.88083 6.18193 8.77845 6.11445 8.67607 6.06237L8.68981 5.98467C8.741 5.99421 8.83328 6.00457 8.96665 6.01575C9.10001 6.0253 9.23836 6.03566 9.38169 6.04684H10.7036C10.8268 6.03729 10.9446 6.02693 11.0573 6.01575C11.1699 6.00621 11.2569 5.99585 11.3183 5.98467L11.3349 6.06279Z" fill="black"/>
<path d="M22.4688 0.24494C22.3665 0.296741 22.2641 0.364217 22.1617 0.447372C22.0591 0.530255 22.0026 0.685792 21.9924 0.913992C21.9829 1.16291 21.9727 1.47918 21.9617 1.86278C21.9617 2.2363 21.9571 2.66161 21.9479 3.13873C21.9479 3.61558 21.9432 4.13401 21.9338 4.69401V6.43617C21.9243 7.11014 21.8423 7.68568 21.6876 8.1628C21.5341 8.63992 21.3292 9.03906 21.073 9.36023C20.827 9.68194 20.5503 9.93605 20.2429 10.1225C19.9457 10.3093 19.6485 10.4493 19.3513 10.5425C19.0644 10.6461 18.7928 10.7084 18.5366 10.7294C18.2804 10.7605 18.0804 10.776 17.9368 10.776C17.3527 10.776 16.7891 10.6983 16.2459 10.5429C15.7028 10.3976 15.2263 10.1591 14.8165 9.82727C14.4067 9.49519 14.0788 9.06482 13.8328 8.53618C13.5868 8.00726 13.4638 7.36424 13.4638 6.60712V4.84941V3.23157C13.4638 2.734 13.4591 2.28823 13.4497 1.89427C13.4497 1.48967 13.445 1.16291 13.4355 0.913992C13.4264 0.685792 13.3701 0.530388 13.2666 0.447778C13.1642 0.364623 13.0619 0.297014 12.9595 0.24494L12.9732 0.167236C13.0244 0.176779 13.1066 0.187134 13.2197 0.198313C13.3426 0.207855 13.4655 0.218217 13.5883 0.229395C13.7217 0.229395 13.8497 0.234168 13.9722 0.24371H14.5259C14.649 0.234168 14.7772 0.229395 14.9102 0.229395C15.0436 0.219853 15.1666 0.209491 15.2792 0.198313C15.4021 0.18877 15.4891 0.178415 15.5403 0.167236L15.5544 0.24494C15.4418 0.296741 15.3342 0.364217 15.2315 0.447372C15.1394 0.530255 15.0882 0.685792 15.078 0.913992C15.0685 1.16291 15.0583 1.48954 15.0473 1.89386V6.60712C15.0473 7.73748 15.3086 8.57231 15.8313 9.11159C16.354 9.65087 17.1276 9.92051 18.1522 9.92051C18.4494 9.92051 18.7876 9.88411 19.1666 9.81132C19.546 9.72843 19.8996 9.56253 20.2275 9.31361C20.5656 9.06469 20.8474 8.71217 21.073 8.25604C21.3087 7.79964 21.4266 7.19302 21.4266 6.43617C21.4266 5.61689 21.4219 4.91689 21.4124 4.33617C21.4124 3.74509 21.4077 3.24206 21.3983 2.82711C21.3983 2.40179 21.3936 2.03891 21.3841 1.73846C21.375 1.43773 21.3647 1.16291 21.3534 0.913992C21.3443 0.685792 21.288 0.530255 21.1845 0.447372C21.0821 0.36449 20.9797 0.297014 20.8774 0.24494L20.8911 0.167236C21.004 0.187957 21.1321 0.208814 21.2754 0.229807C21.419 0.239077 21.5524 0.24371 21.6755 0.24371C21.7879 0.24371 21.9159 0.239077 22.0595 0.229807C22.213 0.209086 22.3463 0.18823 22.4591 0.167236L22.4688 0.24494Z" fill="black"/>
<path d="M33.6231 3.0917L33.531 3.12277C33.1721 2.33457 32.6596 1.70709 31.9936 1.24033C31.3378 0.773847 30.5128 0.540605 29.5187 0.540605C28.9655 0.540605 28.4379 0.659884 27.9357 0.898444C27.4334 1.12637 26.9928 1.45299 26.6137 1.87831C26.2446 2.29299 25.9474 2.79601 25.7222 3.38737C25.4967 3.97818 25.3839 4.63143 25.3839 5.34711C25.3839 6.06251 25.4967 6.71575 25.7222 7.30684C25.9474 7.89792 26.2446 8.40612 26.6137 8.83144C26.9928 9.24612 27.4333 9.56756 27.9353 9.79576C28.4377 10.024 28.9655 10.1381 29.5187 10.1381C30.5026 10.1381 31.302 9.98252 31.9168 9.67144C32.5419 9.34972 33.0697 8.86225 33.5002 8.209L33.5924 8.24008L33.5617 9.23549C33.3259 9.48441 33.0543 9.70743 32.7469 9.90455C32.4398 10.0913 32.1068 10.2522 31.7479 10.3871C31.3995 10.5112 31.0358 10.6044 30.6567 10.6668C30.2774 10.7394 29.8982 10.7756 29.5191 10.7756C28.7297 10.7756 27.9763 10.6461 27.2591 10.3871C26.5419 10.1276 25.9117 9.76455 25.3686 9.29806C24.8254 8.82094 24.395 8.25058 24.0773 7.58697C23.7594 6.91301 23.6005 6.16639 23.6005 5.34711C23.6005 4.52782 23.7594 3.78624 24.0773 3.12237C24.3953 2.4484 24.8257 1.87299 25.3686 1.39615C25.9117 0.919026 26.5419 0.556009 27.2591 0.307089C27.9766 0.0480817 28.7299 -0.0814209 29.5191 -0.0814209C29.8982 -0.0814209 30.2772 -0.0504743 30.6563 0.0114149C31.0357 0.0738494 31.3994 0.172405 31.7475 0.307089C32.1064 0.431686 32.4395 0.592546 32.7469 0.789664C33.0543 0.97615 33.3259 1.19385 33.5617 1.44277L33.6231 3.0917Z" fill="black"/>
<path d="M49.8412 10.511C49.79 10.5018 49.703 10.4916 49.5801 10.4804C49.4675 10.4804 49.3445 10.4756 49.2111 10.4661C49.0778 10.4661 48.9497 10.4614 48.8268 10.4522H47.905C47.7818 10.4614 47.6587 10.4716 47.5356 10.4828C47.423 10.4924 47.3359 10.5027 47.2745 10.5139L47.2604 10.4517C47.3628 10.3999 47.4651 10.3325 47.5675 10.2493C47.6702 10.1664 47.7266 10.0109 47.7369 9.78268C47.7463 9.53376 47.751 9.27449 47.751 9.00485C47.7604 8.73521 47.7651 8.4293 47.7651 8.08714V6.92038V5.34957V3.77835V2.59645C47.7651 2.25402 47.7604 1.95316 47.751 1.69388C47.751 1.42424 47.7463 1.1651 47.7369 0.916448C47.7274 0.688249 47.6711 0.532705 47.5679 0.449823C47.4655 0.356307 47.3632 0.283647 47.2608 0.231845L47.2745 0.169686C47.3359 0.190407 47.423 0.205947 47.5356 0.216307C47.6587 0.216307 47.7817 0.22108 47.9046 0.230622C48.0379 0.240165 48.166 0.244937 48.2889 0.244937H48.8268C48.9497 0.235395 49.0776 0.230622 49.2107 0.230622C49.3444 0.22108 49.4675 0.210718 49.5801 0.19954C49.703 0.189997 49.79 0.179635 49.8412 0.168457L49.8553 0.231028C49.7427 0.282829 49.6351 0.355357 49.5324 0.448599C49.4403 0.531482 49.3891 0.686886 49.3789 0.914813C49.3694 1.16401 49.3592 1.42342 49.3482 1.69306V9.00403C49.3576 9.2734 49.3678 9.53254 49.3789 9.78146C49.388 10.0097 49.4392 10.1652 49.5324 10.2481C49.6348 10.331 49.7425 10.3984 49.8553 10.4505L49.8412 10.511Z" fill="black"/>
</g>
<defs>
<clipPath id="clip0_136_180">
<rect width="50" height="52" fill="white" transform="translate(0.5)"/>
</clipPath>
</defs>
</svg>
