<svg width="247" height="20" viewBox="0 0 247 20" fill="none" xmlns="http://www.w3.org/2000/svg">
<path d="M144.35 15H147.194L151.211 7.02557V4.81818H143.654V7.02557H148.347V7.08523L144.35 15ZM156.389 15.1392C158.855 15.1392 160.665 13.8864 160.665 12.2358C160.665 10.978 159.606 9.96875 158.298 9.76989V9.69034C159.437 9.49148 160.287 8.58168 160.287 7.44318C160.287 5.85227 158.636 4.67898 156.389 4.67898C154.142 4.67898 152.491 5.8473 152.491 7.44318C152.491 8.5767 153.322 9.49148 154.48 9.69034V9.76989C153.153 9.96875 152.113 10.978 152.113 12.2358C152.113 13.8864 153.923 15.1392 156.389 15.1392ZM156.389 13.2301C155.608 13.2301 155.037 12.7031 155.037 11.9972C155.037 11.2912 155.608 10.7841 156.389 10.7841C157.17 10.7841 157.741 11.2962 157.741 11.9972C157.741 12.7081 157.17 13.2301 156.389 13.2301ZM156.389 8.875C155.698 8.875 155.196 8.39773 155.196 7.76136C155.196 7.125 155.698 6.66761 156.389 6.66761C157.08 6.66761 157.582 7.12997 157.582 7.76136C157.582 8.4027 157.08 8.875 156.389 8.875ZM166.333 15.2784C169.103 15.2834 170.823 13.2997 170.828 9.92898C170.833 6.57812 169.103 4.67898 166.333 4.67898C163.559 4.67898 161.849 6.56818 161.839 9.92898C161.829 13.2848 163.559 15.2734 166.333 15.2784ZM166.333 13.0312C165.379 13.0312 164.693 12.0717 164.703 9.92898C164.713 7.83594 165.379 6.90625 166.333 6.90625C167.288 6.90625 167.959 7.83594 167.964 9.92898C167.969 12.0717 167.288 13.0312 166.333 13.0312ZM174.815 13.4091H179.767V15H182.352V13.4091H183.585V11.2614H182.352V8.63636H179.866V11.2614H177.539V11.1818L181.079 4.81818H178.434L174.815 11.2614V13.4091ZM188.901 15.1392C191.367 15.1392 193.176 13.8864 193.176 12.2358C193.176 10.978 192.117 9.96875 190.81 9.76989V9.69034C191.948 9.49148 192.798 8.58168 192.798 7.44318C192.798 5.85227 191.148 4.67898 188.901 4.67898C186.654 4.67898 185.003 5.8473 185.003 7.44318C185.003 8.5767 185.833 9.49148 186.992 9.69034V9.76989C185.664 9.96875 184.625 10.978 184.625 12.2358C184.625 13.8864 186.435 15.1392 188.901 15.1392ZM188.901 13.2301C188.12 13.2301 187.548 12.7031 187.548 11.9972C187.548 11.2912 188.12 10.7841 188.901 10.7841C189.681 10.7841 190.253 11.2962 190.253 11.9972C190.253 12.7081 189.681 13.2301 188.901 13.2301ZM188.901 8.875C188.21 8.875 187.708 8.39773 187.708 7.76136C187.708 7.125 188.21 6.66761 188.901 6.66761C189.592 6.66761 190.094 7.12997 190.094 7.76136C190.094 8.4027 189.592 8.875 188.901 8.875ZM194.53 11.6392C194.53 13.9659 196.459 15.1392 198.607 15.1392C200.893 15.1392 202.564 13.7273 202.564 11.5C202.564 9.49148 201.232 8.15909 199.342 8.15909C199.044 8.15909 198.766 8.19886 198.507 8.23864L200.834 4.81818H198.129L195.723 8.37784C194.987 9.4517 194.53 10.4858 194.53 11.6392ZM197.254 11.6193C197.254 10.7841 197.791 10.1875 198.587 10.1875C199.342 10.1875 199.899 10.7841 199.899 11.6193C199.899 12.4545 199.362 13.0511 198.587 13.0511C197.791 13.0511 197.254 12.4545 197.254 11.6193ZM210.669 15.1392C213.15 15.1392 214.77 13.6328 214.765 11.5C214.77 9.56605 213.418 8.19886 211.604 8.19886C210.569 8.19886 209.734 8.65625 209.416 9.27273H209.356L209.555 7.02557H214.129V4.81818H207.288L206.89 10.4261L209.317 10.9034C209.55 10.4062 210.082 10.108 210.669 10.108C211.514 10.108 212.106 10.6896 212.101 11.5795C212.106 12.4695 211.514 13.0511 210.669 13.0511C209.938 13.0511 209.336 12.6037 209.317 11.8977H206.632C206.647 13.7969 208.322 15.1392 210.669 15.1392ZM220.114 15.1392C222.58 15.1392 224.389 13.8864 224.389 12.2358C224.389 10.978 223.33 9.96875 222.023 9.76989V9.69034C223.161 9.49148 224.011 8.58168 224.011 7.44318C224.011 5.85227 222.361 4.67898 220.114 4.67898C217.866 4.67898 216.216 5.8473 216.216 7.44318C216.216 8.5767 217.046 9.49148 218.205 9.69034V9.76989C216.877 9.96875 215.838 10.978 215.838 12.2358C215.838 13.8864 217.648 15.1392 220.114 15.1392ZM220.114 13.2301C219.333 13.2301 218.761 12.7031 218.761 11.9972C218.761 11.2912 219.333 10.7841 220.114 10.7841C220.894 10.7841 221.466 11.2962 221.466 11.9972C221.466 12.7081 220.894 13.2301 220.114 13.2301ZM220.114 8.875C219.423 8.875 218.92 8.39773 218.92 7.76136C218.92 7.125 219.423 6.66761 220.114 6.66761C220.805 6.66761 221.307 7.12997 221.307 7.76136C221.307 8.4027 220.805 8.875 220.114 8.875ZM229.78 15.1392C232.246 15.1392 234.055 13.8864 234.055 12.2358C234.055 10.978 232.996 9.96875 231.689 9.76989V9.69034C232.827 9.49148 233.677 8.58168 233.677 7.44318C233.677 5.85227 232.027 4.67898 229.78 4.67898C227.532 4.67898 225.882 5.8473 225.882 7.44318C225.882 8.5767 226.712 9.49148 227.871 9.69034V9.76989C226.543 9.96875 225.504 10.978 225.504 12.2358C225.504 13.8864 227.314 15.1392 229.78 15.1392ZM229.78 13.2301C228.999 13.2301 228.427 12.7031 228.427 11.9972C228.427 11.2912 228.999 10.7841 229.78 10.7841C230.56 10.7841 231.132 11.2962 231.132 11.9972C231.132 12.7081 230.56 13.2301 229.78 13.2301ZM229.78 8.875C229.089 8.875 228.586 8.39773 228.586 7.76136C228.586 7.125 229.089 6.66761 229.78 6.66761C230.471 6.66761 230.973 7.12997 230.973 7.76136C230.973 8.4027 230.471 8.875 229.78 8.875ZM239.446 15.1392C241.912 15.1392 243.721 13.8864 243.721 12.2358C243.721 10.978 242.662 9.96875 241.355 9.76989V9.69034C242.493 9.49148 243.343 8.58168 243.343 7.44318C243.343 5.85227 241.693 4.67898 239.446 4.67898C237.199 4.67898 235.548 5.8473 235.548 7.44318C235.548 8.5767 236.378 9.49148 237.537 9.69034V9.76989C236.209 9.96875 235.17 10.978 235.17 12.2358C235.17 13.8864 236.98 15.1392 239.446 15.1392ZM239.446 13.2301C238.665 13.2301 238.093 12.7031 238.093 11.9972C238.093 11.2912 238.665 10.7841 239.446 10.7841C240.226 10.7841 240.798 11.2962 240.798 11.9972C240.798 12.7081 240.226 13.2301 239.446 13.2301ZM239.446 8.875C238.755 8.875 238.252 8.39773 238.252 7.76136C238.252 7.125 238.755 6.66761 239.446 6.66761C240.137 6.66761 240.639 7.12997 240.639 7.76136C240.639 8.4027 240.137 8.875 239.446 8.875Z" fill="#0B0D17"/>
</svg>
