<svg width="195" height="14" viewBox="0 0 195 14" fill="none" xmlns="http://www.w3.org/2000/svg">
<g clip-path="url(#clip0_137_50)">
<path d="M3.996 6.50001V0.611118H5.82723C8.04691 0.611118 8.8238 2.05556 8.8238 3.44445C8.8238 5.33334 7.65847 6.55556 5.21682 6.55556H3.996V6.50001ZM6.65961 6.83334C9.65618 6.61112 11.21 5.33334 11.21 3.50001C11.21 1.77778 10.0446 0.222229 6.49313 0.222229H0.5V0.666673H1.77632V13.3333H0.5V13.7778H5.49428V13.3333H3.996V6.88889H4.05149L9.26773 13.7222H12.5973V13.2778H11.5984L6.65961 6.83334Z" fill="black"/>
<path d="M20.3106 8.05558L22.3638 2.33335H22.4193L24.417 8.05558H20.3106ZM23.8621 0.166687H22.5303L17.8135 13.3334H16.5927V13.7778H20.3661V13.3334H18.3684L20.1441 8.33335H24.528L26.2483 13.3334H24.75V13.7778H29.3003V13.3334H28.4679L23.8621 0.166687Z" fill="black"/>
<path d="M41.1756 13.2778H38.1236V0.666673H40.1768V0.222229H34.6276V0.666673H35.9039V13.3333H34.6276V13.7778H44.6161V8.33334H44.1722C42.9514 13.0556 42.5629 13.2778 41.1756 13.2778Z" fill="black"/>
<path d="M54.6047 0.83334H56.7134C58.8776 0.83334 59.7654 2.05556 59.7654 3.94445C59.7654 6.33334 58.7666 6.88889 56.5469 6.88889H54.6047C54.6047 6.77778 54.6047 0.83334 54.6047 0.83334ZM56.5469 13.3333H54.6047V7.16667H57.1018C60.4868 7.16667 62.0961 5.77778 62.0961 3.77778C62.0961 1.77778 60.3204 0.222229 57.1018 0.222229H51.1642V0.666673H52.4405V13.2778H51.1642V13.7222H56.4914V13.3333H56.5469Z" fill="black"/>
<path d="M75.3032 13.2778V13.7778H80.131V13.2778H78.8547V0.777784H80.131V0.222229H75.3032V0.777784H76.5795V6.55556H71.1968V0.777784H72.5286V0.222229H67.7008V0.777784H68.9216V13.2778H67.7008V13.7778H72.5286V13.2778H71.1968V6.94445H76.5795V13.2778H75.3032Z" fill="black"/>
<path d="M108.82 8.27778H108.376C107.1 13 106.712 13.2778 105.38 13.2778H102.328V0.666673H104.381V0.222229H98.8318V0.666673H100.108V13.3333H98.8318V13.7778H108.82V8.27778Z" fill="black"/>
<path d="M117.477 8.05558L119.53 2.33335H119.586L121.584 8.05558H117.477ZM121.084 0.166687H119.752L114.98 13.3334H113.815V13.7778H117.588V13.3334H115.59L117.366 8.33335H121.75L123.47 13.3334H121.972V13.7778H126.522V13.3334H125.745L121.084 0.166687Z" fill="black"/>
<path d="M139.285 0.611098H141.117V10.2778C141.117 12.3333 139.729 13.5555 137.732 13.5555C136.4 13.5555 135.013 12.7778 135.013 10.3889V0.611098H136.455V0.055542H131.517V0.499986H132.793V9.88887C132.793 12.5555 134.291 13.8889 137.676 13.8889C140.118 13.8889 141.727 12.4444 141.727 10.2222V0.611098H143.003V0.055542H139.285V0.611098Z" fill="black"/>
<path d="M152.16 6.50001V0.611118H153.991C156.211 0.611118 156.987 2.05556 156.987 3.44445C156.987 5.33334 155.822 6.55556 153.38 6.55556H152.16V6.50001ZM154.879 6.83334C157.875 6.61112 159.429 5.33334 159.429 3.50001C159.429 1.77778 158.264 0.222229 154.712 0.222229H148.719V0.666673H149.995V13.3333H148.719V13.7778H153.713V13.3333H152.104V6.88889H152.16L157.376 13.7222H160.705V13.2778H159.762L154.879 6.83334Z" fill="black"/>
<path d="M172.747 13.2778H169.14V6.88889H170.749C171.804 6.88889 172.248 7.50001 172.692 9.55556H173.136V3.72223H172.692C172.303 5.83334 171.748 6.3889 170.749 6.3889H169.14V0.611118H173.247C174.245 0.611118 174.578 0.888896 175.688 4.50001H176.132V0.222229H165.644V0.666673H166.92V13.3333H165.644V13.7778H176.354V8.72223H175.855C174.634 12.7222 174.19 13.2778 172.747 13.2778Z" fill="black"/>
<path d="M190.948 0.222229V0.777784H192.613V10H192.558L186.454 0.222229H182.514V0.777784H183.901V13.2778H182.514V13.7778H186.176V13.2778H184.456V1.11112L192.502 13.7778H193.113V0.777784H194.5V0.222229H190.948Z" fill="black"/>
</g>
<defs>
<clipPath id="clip0_137_50">
<rect width="194" height="14" fill="white" transform="translate(0.5)"/>
</clipPath>
</defs>
</svg>
